<?xml version="1.0" encoding="utf-8"?>
<!-- Generator: Adobe Illustrator 23.0.0, SVG Export Plug-In . SVG Version: 6.00 Build 0)  -->
<svg version="1.1" id="Layer_1" xmlns="http://www.w3.org/2000/svg" xmlns:xlink="http://www.w3.org/1999/xlink" x="0px" y="0px"
	 viewBox="0 0 400 400" style="enable-background:new 0 0 400 400;" xml:space="preserve">
<style type="text/css">
	.st0{fill:#FFC738;}
	.st1{opacity:0.46;fill:#243E93;}
	.st2{opacity:0.46;fill:#010101;}
	.st3{opacity:0.6;fill:#243E93;}
	.st4{fill:#231F20;}
	.st5{fill:#FFFFFF;}
	.st6{fill:#FEDE20;}
</style>
<g>
	<path class="st0" d="M-860,151.6c-0.1-0.4-0.2-0.8-0.4-1.2c-0.2-0.4-0.4-0.7-0.7-1c-0.3-0.4-0.6-0.7-0.9-1.1
		c-0.1-0.1-0.2-0.2-0.3-0.3l-64.1-49.8V46.6c0-11-9-20-20-20h-72.2l-28.9-22.5c-7.1-5.6-17.2-5.6-24.3,0l-28.9,22.5h-72.2
		c-11,0-20,9-20,20v51.6l-64.1,49.8c-0.1,0.1-0.2,0.2-0.3,0.3c-0.3,0.3-0.6,0.7-0.9,1.1c-0.3,0.3-0.5,0.6-0.7,1
		c-0.2,0.4-0.3,0.8-0.4,1.2c-0.1,0.4-0.2,0.9-0.3,1.3c0,0.1-0.1,0.3-0.1,0.4V380c0,2.1,0.4,4.3,1.1,6.3c-1.5,2.3-1.5,5.3,0.2,7.6
		c1.6,2.2,4.5,3.2,7.2,2.4c3.4,2.4,7.4,3.7,11.5,3.7h360c4.2,0,8.2-1.3,11.6-3.8c0.6,0.2,1.2,0.3,1.8,0.3c2.4,0,4.7-1.3,5.8-3.5
		c1.2-2.1,1.1-4.7-0.3-6.8c0.7-2,1.1-4.2,1.1-6.3V153.3c0-0.1-0.1-0.3-0.1-0.4C-859.8,152.5-859.9,152-860,151.6z M-1063.7,14.7
		c2.3-1.8,5.6-1.8,8,0l15.4,11.9h-38.7L-1063.7,14.7z M-1186.3,173.3c3.7,0,6.7-3,6.7-6.7v-120c0-3.7,3-6.7,6.7-6.7h226.7
		c3.7,0,6.7,3,6.7,6.7v120c0,3.7,3,6.7,6.7,6.7c3.7,0,6.7-3,6.7-6.7v-51.5l46.9,36.4l-111.2,86.3c-2.9,2.3-3.4,6.4-1.2,9.4
		c2.3,2.9,6.4,3.4,9.4,1.2l109.4-85v212.8l-174.5-135.6c-7.1-5.6-17.2-5.6-24.3,0l-174.5,135.6V163.5l109.2,84.8
		c2.9,2.3,7.1,1.7,9.4-1.2c2.3-2.9,1.7-7.1-1.2-9.4l-111-86.2l46.9-36.4v51.5C-1193,170.3-1190,173.3-1186.3,173.3z M-881.3,386.7
		H-1238l174.3-135.4c2.3-1.8,5.6-1.8,7.9,0L-881.3,386.7z"/>
	<path class="st1" d="M-1126.3,86.6H-993c3.7,0,6.7-3,6.7-6.7c0-3.7-3-6.7-6.7-6.7h-133.3c-3.7,0-6.7,3-6.7,6.7
		C-1133,83.7-1130,86.6-1126.3,86.6z"/>
	<path class="st1" d="M-1126.3,126.6H-993c3.7,0,6.7-3,6.7-6.7c0-3.7-3-6.7-6.7-6.7h-133.3c-3.7,0-6.7,3-6.7,6.7
		C-1133,123.7-1130,126.6-1126.3,126.6z"/>
	<path class="st2" d="M-993,153.3h-60c-3.7,0-6.7,3-6.7,6.7c0,3.7,3,6.7,6.7,6.7h60c3.7,0,6.7-3,6.7-6.7
		C-986.3,156.3-989.3,153.3-993,153.3z"/>
</g>
<g>
	<path class="st0" d="M-540.4,400c11,0,19.9-8.9,19.9-19.9V21.6c0-11-8.9-19.9-19.9-19.9h-199.1c-11,0-19.9,8.9-19.9,19.9v358.5
		c0,11,8.9,19.9,19.9,19.9H-540.4z M-746.2,380.1v-39.8h152.7c3.7,0,6.6-3,6.6-6.6c0-3.7-3-6.6-6.6-6.6h-152.7V68.1h19.9
		c3.7,0,6.6-3,6.6-6.6c0-3.7-3-6.6-6.6-6.6h-19.9V21.6c0-3.7,3-6.6,6.6-6.6h199.1c3.7,0,6.6,3,6.6,6.6v33.2h-152.7
		c-3.7,0-6.6,3-6.6,6.6c0,3.7,3,6.6,6.6,6.6h152.7V327h-19.9c-3.7,0-6.6,3-6.6,6.6c0,3.7,3,6.6,6.6,6.6h19.9v39.8
		c0,3.7-3,6.6-6.6,6.6h-199.1C-743.2,386.7-746.2,383.8-746.2,380.1z"/>
	<path class="st2" d="M-646.6,374h13.3c3.7,0,6.6-2.1,6.6-4.6s-3-4.6-6.6-4.6h-13.3c-3.7,0-6.6,2.1-6.6,4.6S-650.3,374-646.6,374z"
		/>
	<path class="st1" d="M-558.2,280.5l9.1-15.1c3.9-6.5,2-14.9-4.3-19.1l-36.2-24.1c-6.2-4.1-14.5-2.7-19.1,3.1l-10.5,13.5
		c-0.3,0.3-0.7,0.5-1.1,0.3l-2-1.1c-11.5-6.3-21.9-14.5-30.7-24.2c-9.7-8.8-17.9-19.2-24.2-30.7l-1.1-2c-0.2-0.4-0.1-0.8,0.3-1.1
		l13.5-10.5c5.8-4.6,7.2-12.9,3.1-19l-24.1-36.2c-4.2-6.3-12.6-8.2-19.1-4.3l-15.1,9.1c-5.6,3.3-9.6,8.6-11.4,14.8
		c-5.7,20.8-1.6,56.4,50,108c40.9,40.9,71.7,52,93.1,52c5,0,10-0.6,14.9-1.9C-566.7,290.1-561.4,286-558.2,280.5z M-671.6,232.4
		c-49.6-49.6-50.5-80.9-46.6-95.1c0.8-2.9,2.8-5.4,5.4-6.9l15.1-9.1c0.1-0.1,0.3-0.1,0.5-0.1c0.3,0,0.6,0.1,0.7,0.4l13.1,19.7
		l11,16.4c0.3,0.4,0.2,0.9-0.2,1.2l-13.5,10.5c-5.5,4.3-7.1,11.9-3.7,18l1,1.9c6.9,12.6,15.8,24,26.4,33.7
		c9.7,10.6,21.1,19.6,33.7,26.4l1.9,1c6.1,3.4,13.8,1.8,18-3.7l10.5-13.5c0.3-0.4,0.8-0.5,1.2-0.2l36.1,24.1
		c0.4,0.3,0.5,0.8,0.3,1.2l-9.1,15.1c-1.5,2.6-4,4.6-6.9,5.4C-590.7,282.9-622,282.1-671.6,232.4z"/>
</g>
<g transform="translate(0 -1)">
	<path class="st0" d="M-288.8,276.9c16.5,23.6,32.9,44.7,43.8,58.3c1.6,2,3.1,3.8,4.5,5.6h-32.9c-3.7,0-6.7,3-6.7,6.8s3,6.8,6.7,6.8
		h106.7c3.7,0,6.7-3,6.7-6.8s-3-6.8-6.7-6.8h-32.9c1.4-1.8,2.9-3.6,4.5-5.6c10.9-13.6,27.3-34.7,43.8-58.3
		c16.4-23,31.1-47.1,44-72.2c13.6-27.2,20.5-49.8,20.5-67.1c0-36-14-70.5-39-96c-1.7-1.8-4.2-2.5-6.5-1.9c-2.3,0.6-4.2,2.5-4.8,4.8
		c-0.6,2.4,0.1,4.9,1.8,6.6c22.5,22.9,35.2,54,35.1,86.4c0,15.2-6.4,35.7-19.1,60.9c-12.7,24.5-27.1,48.1-43,70.5
		c-16.3,23.3-32.5,44.2-43.3,57.6c-3.6,4.5-6.8,8.4-9.5,11.7c-1.3,1.5-3.1,2.3-5.1,2.3c-1.9,0-3.8-0.9-5.1-2.3
		c-2.7-3.3-6-7.3-9.5-11.7c-10.8-13.4-27-34.3-43.3-57.6c-16-22.4-30.4-46-43-70.5c-12.7-25.3-19.1-45.8-19.1-60.9
		c0-49.1,28.9-93.4,73.3-112.6c29.9-12.7,63.5-12.7,93.4,0c2.2,0.9,4.7,0.6,6.6-0.8c1.9-1.5,2.9-3.8,2.6-6.2c-0.3-2.4-1.8-4.5-4-5.4
		c-67.9-29.1-146.1,3.2-174.8,72.3c-6.9,16.7-10.5,34.7-10.5,52.8c0,17.3,6.9,39.9,20.5,67.1C-319.8,229.8-305.1,254-288.8,276.9z"
		/>
	<path class="st1" d="M-220,76.5c3.7,0,6.7-3,6.7-6.8s-3-6.8-6.7-6.8c-31.8,0-59.2,22.8-65.4,54.6s10.5,63.5,39.9,75.9
		s63.3,1.9,80.9-25s14.2-62.7-8.3-85.6c-1.7-1.8-4.2-2.5-6.5-1.8c-2.3,0.6-4.2,2.5-4.8,4.8c-0.6,2.4,0.1,4.9,1.8,6.6
		c18,18.3,20.8,47,6.6,68.5c-14.1,21.5-41.2,29.9-64.8,20s-36.9-35.3-31.9-60.7S-245.4,76.5-220,76.5z"/>
	<path class="st3" d="M-399.3,401.9h358.7c7.4,0.1,14.2-3.8,17.9-10.3c3.5-6.1,3.6-13.6,0.2-19.7l-41-74.6
		c-3.7-6.6-10.6-10.7-18.1-10.6h-47.5c-3.7,0-6.7,3-6.7,6.8c0,3.7,3,6.8,6.7,6.8h47.5c2.7-0.1,5.2,1.4,6.5,3.7l41,74.6
		c1.1,1.9,1.1,4.3-0.1,6.3c-1.4,2.3-3.8,3.7-6.5,3.6h-358.7c-2.6,0.1-5.1-1.3-6.4-3.6c-1.2-1.9-1.2-4.3-0.1-6.3l41-74.6
		c1.4-2.3,3.8-3.8,6.5-3.7h47.5c3.7,0,6.7-3,6.7-6.8c0-3.7-3-6.8-6.7-6.8h-47.5c-7.5-0.1-14.4,4-18.2,10.6l-41,74.6
		c-3.4,6.1-3.3,13.7,0.2,19.7C-413.5,398-406.7,401.9-399.3,401.9z"/>
	<path class="st3" d="M-93.3,320.5H-120c-1.3,0-2.6,0.4-3.7,1.1l-20,13.6c-3.1,2.1-3.9,6.3-1.8,9.4s6.2,4,9.2,1.9l18.3-12.4h24.7
		c3.7,0,6.7-3,6.7-6.8C-86.7,323.5-89.6,320.5-93.3,320.5z"/>
	<path class="st3" d="M-133.3,368c0,3.7,3,6.8,6.7,6.8h53.3c3.7,0,6.7-3,6.7-6.8s-3-6.8-6.7-6.8h-53.3
		C-130.3,361.2-133.3,364.2-133.3,368z"/>
	<path class="st3" d="M-300,347.6c2.9,0,5.5-2,6.4-4.8c0.9-2.9-0.2-6-2.7-7.6l-20-13.6c-1.1-0.7-2.4-1.1-3.7-1.1h-26.7
		c-3.7,0-6.7,3-6.7,6.8c0,3.7,3,6.8,6.7,6.8h24.7l18.3,12.4C-302.6,347.2-301.3,347.6-300,347.6z"/>
	<path class="st3" d="M-366.7,361.2c-3.7,0-6.7,3-6.7,6.8s3,6.8,6.7,6.8h53.3c3.7,0,6.7-3,6.7-6.8s-3-6.8-6.7-6.8H-366.7z"/>
</g>
<g>
	<g>
		<g>
			<g>
				<g>
					<path class="st4" d="M294.3,247.9c-6.7,0-13.2-0.3-19.4-0.7c-6.3-0.3-12.8-0.7-19.7-0.7c-2.1,0-3.8-1.7-3.8-3.8
						c0-2.1,1.7-3.8,3.8-3.8c7.1,0,13.7,0.4,20.1,0.7c6.4,0.3,12.5,0.7,19,0.7c3.2,0,5.7-2.6,5.7-5.7c0-3.7-3.7-6.5-7.2-5.5
						c-1.1,0.3-2.2,0.1-3.1-0.5c-0.9-0.6-1.5-1.6-1.6-2.7c-0.2-2.6-2.3-4.8-4.9-5.1c-1.9-0.2-3.2-1.8-3.3-3.7c0-1.6-0.5-3.2-1.4-4.6
						c-1.1-1.7-0.6-4.1,1.2-5.2c1.8-1.1,4.1-0.6,5.2,1.2c1.1,1.8,1.9,3.6,2.3,5.6c3.4,1.3,6.2,4,7.6,7.4c7.1,0.2,12.9,6,12.9,13.2
						C307.6,242,301.6,247.9,294.3,247.9z"/>
				</g>
			</g>
			<g>
				<g>
					<path class="st4" d="M209.3,283.8c-16.3,0-111.8-92.4-111.8-151.4c0-7.9,0.6-15.7,1.8-23.4c0.3-2,2.2-3.5,4.3-3.1
						c2,0.3,3.4,2.2,3.1,4.3c-1.2,7.2-1.7,14.7-1.7,22.2c0,54.7,92.3,142.7,104.4,143.9c12-1.2,104.3-89.2,104.3-143.9
						c0-67.2-46.8-121.9-104.3-121.9c-33.7,0-65.5,19.2-85.1,51.4c-1.1,1.8-3.4,2.3-5.2,1.3c-1.8-1.1-2.3-3.4-1.3-5.2
						c20.9-34.4,55.2-55,91.5-55C270.9,3,321.1,61,321.1,132.4C321.1,191.4,225.5,283.8,209.3,283.8z"/>
				</g>
			</g>
			<g>
				<g>
					<g>
						<path class="st5" d="M209.3,6.7c29.1,0,52.6,56.3,52.6,125.7c0,58-46.4,147.7-52.6,147.7c-6.3,0-52.6-89.6-52.6-147.7
							C156.6,99.3,168.2,6.7,209.3,6.7z"/>
					</g>
				</g>
				<g>
					<g>
						<path class="st6" d="M214.3,18.6c27.6,0,50,53.5,50,119.4c0,55.1-44.1,140.3-50,140.3c-5.9,0-50-85.2-50-140.3
							C164.3,106.5,175.3,18.6,214.3,18.6z"/>
					</g>
				</g>
				<g>
					<g>
						<path class="st4" d="M209.3,283.8c-11.7,0-56.4-96.7-56.4-151.4c0-27.3,9.6-129.4,56.4-129.4c31.6,0,56.4,56.9,56.4,129.4
							C265.6,187.1,221,283.8,209.3,283.8z M209.3,10.5c-37.3,0-48.9,89.4-48.9,121.9c0,52.6,39,131,48.9,142.9
							c9.9-12,48.9-90.4,48.9-142.9C258.1,66.3,235.8,10.5,209.3,10.5z"/>
					</g>
				</g>
			</g>
			<g>
				<g>
					<path class="st4" d="M209.3,283.8c-2.1,0-3.8-1.7-3.8-3.8V6.7c0-2.1,1.7-3.8,3.8-3.8c2.1,0,3.8,1.7,3.8,3.8V280
						C213,282.1,211.3,283.8,209.3,283.8z"/>
				</g>
			</g>
			<g>
				<g>
					<g>
						<path class="st5" d="M184.8,297h50.7c2.4,0,4.4,2,4.4,4.4v34.9c0,2.4-2,4.4-4.4,4.4h-50.7c-2.4,0-4.4-2-4.4-4.4v-34.9
							C180.4,299,182.3,297,184.8,297z"/>
					</g>
				</g>
				<g>
					<g>
						<path class="st6" d="M191.1,303.2h48.2c2.3,0,4.2,1.9,4.2,4.2v33.2c0,2.3-1.9,4.1-4.2,4.1h-48.2c-2.3,0-4.1-1.9-4.1-4.1v-33.2
							C186.9,305.1,188.8,303.2,191.1,303.2z"/>
					</g>
				</g>
				<g>
					<g>
						<path class="st4" d="M235.5,344.5h-50.7c-4.5,0-8.1-3.6-8.1-8.1v-34.9c0-4.5,3.6-8.1,8.1-8.1h50.7c4.5,0,8.2,3.7,8.2,8.1v34.9
							C243.6,340.8,240,344.5,235.5,344.5z M184.8,300.8c-0.3,0-0.6,0.3-0.6,0.6v34.9c0,0.3,0.2,0.6,0.6,0.6h50.7
							c0.4,0,0.7-0.3,0.7-0.6v-34.9c0-0.4-0.3-0.6-0.7-0.6H184.8z"/>
					</g>
				</g>
			</g>
			<g>
				<g>
					<g>
						<path class="st5" d="M216.8,276.6V297h-13.9v-19.7c2.9,1.8,5.1,2.7,6.4,2.7C210.8,280,213.4,278.8,216.8,276.6z"/>
					</g>
				</g>
				<g>
					<g>
						<path class="st6" d="M221.5,282.1v19.4h-13.2v-18.7c2.7,1.7,4.8,2.6,6.1,2.6C215.8,285.4,218.2,284.3,221.5,282.1z"/>
					</g>
				</g>
				<g>
					<g>
						<path class="st4" d="M216.8,300.8h-13.9c-2.1,0-3.8-1.7-3.8-3.8v-19.7c0-1.4,0.7-2.6,1.9-3.3c1.2-0.7,2.6-0.6,3.8,0.1
							c3.3,2,4.4,2.2,4.5,2.2c0,0,1.3-0.2,5.4-2.8c1.2-0.7,2.6-0.8,3.8-0.2c1.2,0.7,2,1.9,2,3.3V297
							C220.6,299.1,218.9,300.8,216.8,300.8z M206.6,293.3h6.4v-10.4c-1.8,0.7-2.9,0.9-3.8,0.9c-0.6,0-1.4-0.1-2.6-0.5V293.3z"/>
					</g>
				</g>
			</g>
			<g>
				<g>
					<path class="st4" d="M239.9,313.4h-61.7c-2.1,0-3.8-1.7-3.8-3.8c0-2.1,1.7-3.8,3.8-3.8h61.7c2.1,0,3.8,1.7,3.8,3.8
						C243.6,311.8,241.9,313.4,239.9,313.4z"/>
				</g>
			</g>
			<g>
				<g>
					<path class="st4" d="M218.7,396.6c-8.1,0-14.6-6.6-14.6-14.6c0-7.6,5.8-13.8,13.2-14.6c0.5-7.6,6.8-13.7,14.6-13.7
						c5,0,9.6,2.5,12.2,6.6c0.9-0.2,1.8-0.3,2.8-0.3c8.1,0,14.6,6.6,14.6,14.6c0,0.5,0,1,0,1.4c-0.2,2.1-2,3.6-4.1,3.4
						c-2.1-0.2-3.6-2-3.4-4.1c0-0.2,0-0.5,0-0.7c0-5-5.2-8.7-10.3-6.4c-1,0.4-2.1,0.5-3.1,0c-1-0.4-1.7-1.2-2.1-2.3
						c-1-2.9-3.7-4.9-6.8-4.9c-3.9,0-7.1,3.2-7.1,7.1c0,0.7,0.1,1.3,0.3,1.9c0.4,1.3,0.1,2.7-0.8,3.7c-0.9,1-2.3,1.4-3.6,1.1
						c-4.8-1.1-9.1,2.3-9.1,6.9c0,3.9,3.2,7.1,7.1,7.1c2.1,0,3.8,1.7,3.8,3.8C222.4,394.9,220.7,396.6,218.7,396.6z"/>
				</g>
			</g>
			<g>
				<g>
					<path class="st4" d="M195.7,400c-2.1,0-3.8-1.7-3.8-3.8c0-2.1,1.7-3.8,3.8-3.8c4.8,0,8.8-2.7,8.8-5.8c0-3.1-4.1-5.8-8.8-5.8
						c-1.7,0-3.3,0.3-4.6,0.9c-1.2,0.5-2.6,0.4-3.7-0.4c-1.1-0.8-1.7-2.1-1.5-3.4c0-0.3,0-0.6,0-0.9c0-4.9-3.9-8.8-8.8-8.8
						c-1.4,0-2.6,0.3-3.8,0.9c-1,0.5-2.1,0.5-3.1,0.1c-1-0.4-1.8-1.2-2.1-2.3c-1.2-3.6-4.6-6-8.3-6c-2.1,0-3.8-1.7-3.8-3.8
						c0-2.1,1.7-3.8,3.8-3.8c5.7,0,10.9,3,13.8,7.7c1.1-0.3,2.3-0.4,3.5-0.4c7.8,0,14.3,5.5,15.9,12.7c0.9-0.1,1.8-0.2,2.7-0.2
						c9,0,16.3,6,16.3,13.3C212.1,394.2,204.9,400,195.7,400z"/>
				</g>
			</g>
			<g>
				<g>
					<g>
						<path class="st5" d="M97.7,41c12,0,21.7,9.6,21.9,21.5c7.7,1,13.7,7.2,14.4,14.9c1.4-0.4,2.8-0.6,4.4-0.6
							c9.2,0,16.6,7.4,16.6,16.6c0,9.2-7.4,16.6-16.6,16.6c-23.5,0-44.5-2.4-68.8-2.4c-9.2,0-16.6-7.4-16.6-16.6
							c0-7.3,4.7-13.5,11.4-15.8c2.1-5.4,6.3-9.8,11.6-12.1v-0.4C75.8,50.8,85.6,41,97.7,41z"/>
					</g>
				</g>
				<g>
					<g>
						<path class="st6" d="M103,47.7c11.4,0,20.6,9.1,20.8,20.5c7.3,0.9,13,6.8,13.7,14.2c1.3-0.4,2.7-0.6,4.1-0.6
							c8.7,0,15.8,7.1,15.8,15.8c0,8.7-7.1,15.8-15.8,15.8c-22.4,0-42.3-2.3-65.4-2.3c-8.7,0-15.8-7.1-15.8-15.8
							c0-7,4.5-12.9,10.8-15c2-5.1,6-9.3,11-11.5v-0.4C82.2,57,91.5,47.7,103,47.7z"/>
					</g>
				</g>
				<g>
					<g>
						<path class="st4" d="M138.3,113.8c-11.8,0-23.1-0.6-34-1.2c-11.1-0.6-22.6-1.2-34.8-1.2c-11.2,0-20.4-9.1-20.4-20.4
							c0-8.2,4.9-15.5,12.3-18.7c2.3-4.9,6.1-8.9,10.8-11.5c1.2-13.4,12.2-23.6,25.5-23.6c12.9,0,23.7,9.7,25.4,22.2
							c6.6,1.9,11.9,7.2,13.9,13.7c0.5,0,0.9,0,1.4,0c11.2,0,20.4,9.1,20.4,20.4C158.7,104.7,149.5,113.8,138.3,113.8z M97.7,44.7
							c-10,0-18.1,8.1-18.1,18.1c0,1.5-0.9,3.2-2.2,3.8c-4.4,1.9-7.9,5.6-9.6,10c-0.4,1-1.2,1.9-2.3,2.2c-5.3,1.8-8.8,6.7-8.8,12.2
							c0,7.1,5.8,12.9,12.9,12.9c12.4,0,24,0.6,35.2,1.2c10.8,0.6,22.1,1.2,33.6,1.2c7.1,0,12.9-5.8,12.9-12.9
							c0-7.1-5.8-12.9-12.9-12.9c-1.2,0-2.3,0.1-3.3,0.4c-1.1,0.3-2.2,0.1-3.2-0.5c-0.9-0.6-1.5-1.6-1.6-2.8
							c-0.5-6-5.2-10.8-11.2-11.6c-1.9-0.2-3.3-1.8-3.3-3.7C115.6,52.7,107.5,44.7,97.7,44.7z"/>
					</g>
				</g>
			</g>
		</g>
	</g>
</g>
</svg>
