<?xml version="1.0" encoding="utf-8"?>
<!-- Generator: Adobe Illustrator 23.0.0, SVG Export Plug-In . SVG Version: 6.00 Build 0)  -->
<svg version="1.1" id="Layer_1" xmlns="http://www.w3.org/2000/svg" xmlns:xlink="http://www.w3.org/1999/xlink" x="0px" y="0px"
	 viewBox="0 0 400 400" style="enable-background:new 0 0 400 400;" xml:space="preserve">
<style type="text/css">
	.st0{fill:#FFC738;}
	.st1{opacity:0.46;fill:#243E93;}
	.st2{opacity:0.46;fill:#010101;}
	.st3{opacity:0.6;fill:#243E93;}
</style>
<g transform="translate(0 -1)">
	<path class="st0" d="M131.2,276.9c16.5,23.6,32.9,44.7,43.8,58.3c1.6,2,3.1,3.8,4.5,5.6h-32.9c-3.7,0-6.7,3-6.7,6.8s3,6.8,6.7,6.8
		h106.7c3.7,0,6.7-3,6.7-6.8s-3-6.8-6.7-6.8h-32.9c1.4-1.8,2.9-3.6,4.5-5.6c10.9-13.6,27.3-34.7,43.8-58.3
		c16.4-23,31.1-47.1,44-72.2c13.6-27.2,20.5-49.8,20.5-67.1c0-36-14-70.5-39-96c-1.7-1.8-4.2-2.5-6.5-1.9c-2.3,0.6-4.2,2.5-4.8,4.8
		c-0.6,2.4,0.1,4.9,1.8,6.6c22.5,22.9,35.2,54,35.1,86.4c0,15.2-6.4,35.7-19.1,60.9c-12.7,24.5-27.1,48.1-43,70.5
		c-16.3,23.3-32.5,44.2-43.3,57.6c-3.6,4.5-6.8,8.4-9.5,11.7c-1.3,1.5-3.1,2.3-5.1,2.3c-1.9,0-3.8-0.9-5.1-2.3
		c-2.7-3.3-6-7.3-9.5-11.7c-10.8-13.4-27-34.3-43.3-57.6c-16-22.4-30.4-46-43-70.5C86.4,173.3,80,152.8,80,137.6
		c0-49.1,28.9-93.4,73.3-112.6c29.9-12.7,63.5-12.7,93.4,0c2.2,0.9,4.7,0.6,6.6-0.8c1.9-1.5,2.9-3.8,2.6-6.2c-0.3-2.4-1.8-4.5-4-5.4
		c-67.9-29.1-146.1,3.2-174.8,72.3c-6.9,16.7-10.5,34.7-10.5,52.8c0,17.3,6.9,39.9,20.5,67.1C100.2,229.8,114.9,254,131.2,276.9z"/>
	<path class="st1" d="M200,76.5c3.7,0,6.7-3,6.7-6.8s-3-6.8-6.7-6.8c-31.8,0-59.2,22.8-65.4,54.6c-6.2,31.7,10.5,63.5,39.9,75.9
		s63.3,1.9,80.9-25s14.2-62.7-8.3-85.6c-1.7-1.8-4.2-2.5-6.5-1.8c-2.3,0.6-4.2,2.5-4.8,4.8c-0.6,2.4,0.1,4.9,1.8,6.6
		c18,18.3,20.8,47,6.6,68.5c-14.1,21.5-41.2,29.9-64.8,20s-36.9-35.3-31.9-60.7C152.7,94.7,174.6,76.5,200,76.5z"/>
	<path class="st3" d="M20.7,401.9h358.7c7.4,0.1,14.2-3.8,17.9-10.3c3.5-6.1,3.6-13.6,0.2-19.7l-41-74.6
		c-3.7-6.6-10.6-10.7-18.1-10.6h-47.5c-3.7,0-6.7,3-6.7,6.8c0,3.7,3,6.8,6.7,6.8h47.5c2.7-0.1,5.2,1.4,6.5,3.7l41,74.6
		c1.1,1.9,1.1,4.3-0.1,6.3c-1.4,2.3-3.8,3.7-6.5,3.6H20.7c-2.6,0.1-5.1-1.3-6.4-3.6c-1.2-1.9-1.2-4.3-0.1-6.3l41-74.6
		c1.4-2.3,3.8-3.8,6.5-3.7h47.5c3.7,0,6.7-3,6.7-6.8c0-3.7-3-6.8-6.7-6.8H61.7c-7.5-0.1-14.4,4-18.2,10.6l-41,74.6
		c-3.4,6.1-3.3,13.7,0.2,19.7C6.5,398,13.3,401.9,20.7,401.9z"/>
	<path class="st3" d="M326.7,320.5H300c-1.3,0-2.6,0.4-3.7,1.1l-20,13.6c-3.1,2.1-3.9,6.3-1.8,9.4s6.2,4,9.2,1.9l18.3-12.4h24.7
		c3.7,0,6.7-3,6.7-6.8C333.3,323.5,330.4,320.5,326.7,320.5z"/>
	<path class="st3" d="M286.7,368c0,3.7,3,6.8,6.7,6.8h53.3c3.7,0,6.7-3,6.7-6.8s-3-6.8-6.7-6.8h-53.3
		C289.7,361.2,286.7,364.2,286.7,368z"/>
	<path class="st3" d="M120,347.6c2.9,0,5.5-2,6.4-4.8c0.9-2.9-0.2-6-2.7-7.6l-20-13.6c-1.1-0.7-2.4-1.1-3.7-1.1H73.3
		c-3.7,0-6.7,3-6.7,6.8c0,3.7,3,6.8,6.7,6.8H98l18.3,12.4C117.4,347.2,118.7,347.6,120,347.6z"/>
	<path class="st3" d="M53.3,361.2c-3.7,0-6.7,3-6.7,6.8s3,6.8,6.7,6.8h53.3c3.7,0,6.7-3,6.7-6.8s-3-6.8-6.7-6.8H53.3z"/>
</g>
</svg>
